HIERARCHY
ROOT Hips
{
	OFFSET -14.64140 90.27770 -84.91600
	CHANNELS 6 Xposition Yposition Zposition Zrotation Xrotation Yrotation
	JOINT Spine
	{
		OFFSET 0.00000 13.20850 -1.60436
		CHANNELS 3 Zrotation Xrotation Yrotation
		JOINT Spine1
		{
			OFFSET 0.00000 8.61716 0.00000
			CHANNELS 3 Zrotation Xrotation Yrotation
			JOINT Spine2
			{
				OFFSET 0.00000 8.61717 0.00000
				CHANNELS 3 Zrotation Xrotation Yrotation
				JOINT Spine3
				{
					OFFSET 0.00000 8.61717 0.00000
					CHANNELS 3 Zrotation Xrotation Yrotation
					JOINT Neck
					{
						OFFSET 0.00000 11.07920 1.10792
						CHANNELS 3 Zrotation Xrotation Yrotation
						JOINT Neck1
						{
							OFFSET 0.00000 7.08032 0.00000
							CHANNELS 3 Zrotation Xrotation Yrotation
							JOINT Head
							{
								OFFSET 0.00000 7.08031 0.00000
								CHANNELS 3 Zrotation Xrotation Yrotation
								End site
								{
									OFFSET 0.00000 0.00000 0.00000
								}
							}
						}
					}
					JOINT RightShoulder
					{
						OFFSET -0.01000 7.91373 5.19711
						CHANNELS 3 Zrotation Xrotation Yrotation
						JOINT RightArm
						{
							OFFSET -18.41580 0.00000 0.00000
							CHANNELS 3 Zrotation Xrotation Yrotation
							JOINT RightForeArm
							{
								OFFSET -29.11090 0.00000 0.00000
								CHANNELS 3 Zrotation Xrotation Yrotation
								JOINT RightHand
								{
									OFFSET -24.65040 0.00000 0.00000
									CHANNELS 3 Zrotation Xrotation Yrotation
									JOINT RightHandThumb1
									{
										OFFSET -5.35114 -0.85590 3.97906
										CHANNELS 3 Zrotation Xrotation Yrotation
										JOINT RightHandThumb2
										{
											OFFSET -4.52789 0.00000 0.00000
											CHANNELS 3 Zrotation Xrotation Yrotation
											JOINT RightHandThumb3
											{
												OFFSET -2.46976 0.00000 0.00000
												CHANNELS 3 Zrotation Xrotation Yrotation
												End site
												{
													OFFSET 0.00000 0.00000 0.00000
												}
											}
										}
									}
									JOINT RightHandIndex1
									{
										OFFSET -14.26970 0.00000 2.88139
										CHANNELS 3 Zrotation Xrotation Yrotation
										JOINT RightHandIndex2
										{
											OFFSET -5.48836 0.00000 0.00000
											CHANNELS 3 Zrotation Xrotation Yrotation
											JOINT RightHandIndex3
											{
												OFFSET -3.01859 0.00000 0.00000
												CHANNELS 3 Zrotation Xrotation Yrotation
												End site
												{
													OFFSET 0.00000 0.00000 0.00000
												}
											}
										}
									}
									JOINT RightHandMiddle1
									{
										OFFSET -14.26970 0.00000 -0.09147
										CHANNELS 3 Zrotation Xrotation Yrotation
										JOINT RightHandMiddle2
										{
											OFFSET -6.17441 0.00000 0.00000
											CHANNELS 3 Zrotation Xrotation Yrotation
											JOINT RightHandMiddle3
											{
												OFFSET -3.56743 0.00000 0.00000
												CHANNELS 3 Zrotation Xrotation Yrotation
												End site
												{
													OFFSET 0.00000 0.00000 0.00000
												}
											}
										}
									}
									JOINT RightHandRing1
									{
										OFFSET -12.69180 0.00000 -3.06433
										CHANNELS 3 Zrotation Xrotation Yrotation
										JOINT RightHandRing2
										{
											OFFSET -5.62556 0.00000 0.00000
											CHANNELS 3 Zrotation Xrotation Yrotation
											JOINT RightHandRing3
											{
												OFFSET -3.56744 0.00000 0.00000
												CHANNELS 3 Zrotation Xrotation Yrotation
												End site
												{
													OFFSET 0.00000 0.00000 0.00000
												}
											}
										}
									}
									JOINT RightHandPinky1
									{
										OFFSET -11.11390 0.00000 -6.03719
										CHANNELS 3 Zrotation Xrotation Yrotation
										JOINT RightHandPinky2
										{
											OFFSET -4.52789 0.00000 0.00000
											CHANNELS 3 Zrotation Xrotation Yrotation
											JOINT RightHandPinky3
											{
												OFFSET -2.46976 0.00000 0.00000
												CHANNELS 3 Zrotation Xrotation Yrotation
												End site
												{
													OFFSET 0.00000 0.00000 0.00000
												}
											}
										}
									}
								}
							}
						}
					}
					JOINT LeftShoulder
					{
						OFFSET 0.01000 7.91373 5.19711
						CHANNELS 3 Zrotation Xrotation Yrotation
						JOINT LeftArm
						{
							OFFSET 18.41580 0.00000 0.00000
							CHANNELS 3 Zrotation Xrotation Yrotation
							JOINT LeftForeArm
							{
								OFFSET 29.11090 0.00000 0.00000
								CHANNELS 3 Zrotation Xrotation Yrotation
								JOINT LeftHand
								{
									OFFSET 24.65040 0.00000 0.00000
									CHANNELS 3 Zrotation Xrotation Yrotation
									JOINT LeftHandThumb1
									{
										OFFSET 5.35114 -0.85590 3.97906
										CHANNELS 3 Zrotation Xrotation Yrotation
										JOINT LeftHandThumb2
										{
											OFFSET 4.52789 0.00000 0.00000
											CHANNELS 3 Zrotation Xrotation Yrotation
											JOINT LeftHandThumb3
											{
												OFFSET 2.46977 0.00000 0.00000
												CHANNELS 3 Zrotation Xrotation Yrotation
												End site
												{
													OFFSET 0.00000 0.00000 0.00000
												}
											}
										}
									}
									JOINT LeftHandIndex1
									{
										OFFSET 14.26970 0.00000 2.88139
										CHANNELS 3 Zrotation Xrotation Yrotation
										JOINT LeftHandIndex2
										{
											OFFSET 5.48836 0.00000 0.00000
											CHANNELS 3 Zrotation Xrotation Yrotation
											JOINT LeftHandIndex3
											{
												OFFSET 3.01859 0.00000 0.00000
												CHANNELS 3 Zrotation Xrotation Yrotation
												End site
												{
													OFFSET 0.00000 0.00000 0.00000
												}
											}
										}
									}
									JOINT LeftHandMiddle1
									{
										OFFSET 14.26970 0.00000 -0.09147
										CHANNELS 3 Zrotation Xrotation Yrotation
										JOINT LeftHandMiddle2
										{
											OFFSET 6.17440 0.00000 0.00000
											CHANNELS 3 Zrotation Xrotation Yrotation
											JOINT LeftHandMiddle3
											{
												OFFSET 3.56744 0.00000 0.00000
												CHANNELS 3 Zrotation Xrotation Yrotation
												End site
												{
													OFFSET 0.00000 0.00000 0.00000
												}
											}
										}
									}
									JOINT LeftHandRing1
									{
										OFFSET 12.69180 0.00000 -3.06433
										CHANNELS 3 Zrotation Xrotation Yrotation
										JOINT LeftHandRing2
										{
											OFFSET 5.62556 0.00000 0.00000
											CHANNELS 3 Zrotation Xrotation Yrotation
											JOINT LeftHandRing3
											{
												OFFSET 3.56744 0.00000 0.00000
												CHANNELS 3 Zrotation Xrotation Yrotation
												End site
												{
													OFFSET 0.00000 0.00000 0.00000
												}
											}
										}
									}
									JOINT LeftHandPinky1
									{
										OFFSET 11.11390 0.00000 -6.03719
										CHANNELS 3 Zrotation Xrotation Yrotation
										JOINT LeftHandPinky2
										{
											OFFSET 4.52789 0.00000 0.00000
											CHANNELS 3 Zrotation Xrotation Yrotation
											JOINT LeftHandPinky3
											{
												OFFSET 2.46976 0.00000 0.00000
												CHANNELS 3 Zrotation Xrotation Yrotation
												End site
												{
													OFFSET 0.00000 0.00000 0.00000
												}
											}
										}
									}
								}
							}
						}
					}
					JOINT pCube4
					{
						OFFSET 0.00000 10.91090 1.10792
						CHANNELS 3 Zrotation Xrotation Yrotation
						End site
						{
							OFFSET 0.00000 0.00000 0.00000
						}
					}
				}
			}
		}
	}
	JOINT RightUpLeg
	{
		OFFSET -9.98441 0.00000 0.00000
		CHANNELS 3 Zrotation Xrotation Yrotation
		JOINT RightLeg
		{
			OFFSET 0.00000 -42.11790 0.00000
			CHANNELS 3 Zrotation Xrotation Yrotation
			JOINT RightFoot
			{
				OFFSET 0.00000 -45.00020 -0.00001
				CHANNELS 3 Zrotation Xrotation Yrotation
				JOINT RightForeFoot
				{
					OFFSET 0.00000 -3.74820 0.00000
					CHANNELS 3 Zrotation Xrotation Yrotation
					JOINT RightToeBase
					{
						OFFSET 0.00000 0.06325 14.43120
						CHANNELS 3 Zrotation Xrotation Yrotation
						End site
						{
							OFFSET 0.00000 0.00000 0.00000
						}
					}
				}
			}
		}
	}
	JOINT LeftUpLeg
	{
		OFFSET 9.98441 0.00000 0.00000
		CHANNELS 3 Zrotation Xrotation Yrotation
		JOINT LeftLeg
		{
			OFFSET 0.00000 -42.11800 0.00000
			CHANNELS 3 Zrotation Xrotation Yrotation
			JOINT LeftFoot
			{
				OFFSET 0.00000 -45.00070 0.00000
				CHANNELS 3 Zrotation Xrotation Yrotation
				JOINT LeftForeFoot
				{
					OFFSET 0.00000 -3.74824 0.00000
					CHANNELS 3 Zrotation Xrotation Yrotation
					JOINT LeftToeBase
					{
						OFFSET 0.00000 0.06325 14.43110
						CHANNELS 3 Zrotation Xrotation Yrotation
						End site
						{
							OFFSET 0.00000 0.00000 0.00000
						}
					}
				}
			}
		}
	}
}
MOTION
Frames: 4
Frame Time: 0.050000
0.025796244000735102 0.02447892015801845 0.00924139669760147 0.04358874349931596 -0.04906132571884573 0.001142505762465779 -1.6559115464421843 1.1043522897798985 -1.0212958281832396 -0.858421792565718 3.547275609400426 0.3713489508444116 -1.1283481889415121 -1.862698318240295 -0.7762037029594535 0.12037094854387612 -0.22781197427028166 -0.7883420756700988 0.6189798455362543 11.955507481930761 -2.197927331190376 0.2963558128583111 -0.5967147378281282 -6.370714858107185 0.9754412793770777 -15.894313373262717 -0.5576882094496451 -5.536940777121345 2.1074670870494474 -15.90834917556404 70.01443424400767 -5.148061332286193 4.670442324012644 31.06827629328701 9.519313045124163 89.85253659510502 20.352122568736856 -0.36617101226308124 -3.795105642539918 4.557438090233804 -0.11449744880950283 -1.565979691298774 0.01392889335693484 0.01951339234580817 -56.221276642763 0.02851601725479474 -0.027275221316194222 -56.258352077378895 -38.73812393836793 0.0013387512729236659 0.004544833866214767 -0.049400277619787394 -0.017495893196040488 -0.0024142347344898664 0.029679794578696777 0.015290192518516182 0.04511527415388128 -36.69679160477069 -0.027413267468813025 -0.006602521238287467 0.005560494462681611 0.02845768764634291 0.030509606780679627 0.03827997153751255 0.04067829691538886 -0.041682632766284776 -19.800465087406057 -0.00865362741454472 0.0313702304574159 0.043456599792717335 0.012231426427678006 0.0002819974143381561 0.04100305799988148 0.019047958299627767 0.04529881428395954 24.04479590546406 0.012033115376353109 -0.0022621769192028556 28.873158518319773 0.011528404972765988 0.004840316912831782 28.891344895514607 0.022677926695020115 0.015870448517937098 5.358854208380603 1.540686526285892 13.745531934003004 -67.48199684477818 17.267739552709912 -4.467775133307904 4.102203585904756 -5.314831371357006 -78.28310918015903 -12.984454087127496 -0.6743488724632609 0.1130306711282316 -0.4733291493221249 0.05766986282823918 -8.142826245520904 0.048692978328139715 -0.009309234495084367 44.5879359286744 0.016646033492915494 -0.010833919377937408 44.60539674176015 12.431620692185913 0.014394792740554939 -0.015511108693264412 -0.004994034098504109 0.019951824785564894 -0.030092423416734418 0.022722040796363124 0.038421378514937606 0.026976463650757752 11.067697002524564 -0.0007696009205375157 0.02547881325293168 -0.0004909510010666305 0.03716686394598936 -0.02590442106918198 -0.0024198733489943394 -0.01375258750932904 -0.00019801520868788529 4.81991070428758 -0.014572483968632461 0.029240112707164607 0.01608359025681897 0.011584709051286151 0.015178813466652697 0.02116349000474195 0.012245253959774284 0.0008099436646448258 -5.604949789780938 -0.001158440707724002 0.040459064759764574 -6.758966976477838 0.0163355514584072 -0.04754633922603163 -6.745453149828232 -0.03138513223971667 0.046781905417991904 -0.017738460562902496 0.030677409303868242 -0.048270785212124225 8.009117573764819 3.521348019392894 -19.17589388847113 -0.01824402583745485 10.356532766950323 -0.027087868793462967 -5.636052925816002 -15.662622012469761 3.169540038345039 0.0382535077592632 0.04807402788180821 0.039462177873650854 0.006343249130268939 4.672667204239947 0.0011430336190281732 12.412481322025702 -8.28215661613915 6.8656623043204235 0.02959868257630403 46.391840250939445 0.029804659600962784 -4.346631607752031 -14.771288178585024 -3.8176448662821305 0.035795801597383874 -0.0035263309942602976 -0.017931164662005408 -0.04333154666078082 -10.717936195242075 0.020502382988268147 
-0.02711384443424657 -0.03992183455399186 -0.03633062072690862 -0.017734343920493723 0.002234210756157869 -0.038059939613999824 -1.843587581706989 0.9306394670545043 -1.0143148081070812 -0.8062110733721018 3.5683849238786776 0.32631961699268514 -1.1206887927026072 -1.9740736488107269 -0.8960898298763332 0.04827482572389526 -0.23980105665539386 -0.7469692556115182 0.450256009612239 12.137608160768751 -1.7462684685453478 0.2134060637661631 -0.4048510332733946 -5.429783973999925 0.819078879853132 -15.680801361185456 -0.4414061887179672 -5.439667968558383 2.090839393889344 -15.806561260411847 69.94138449532188 -4.350659162278401 4.373326698682335 31.431237441030213 9.594977340897158 89.57575895557032 20.415663782576672 -0.41727739309663936 -3.6591514048570595 4.489100456389875 -0.0777813971034394 -1.602369623500259 0.014376028314380375 0.023266593754568608 -56.22607327237305 0.03459647806733271 -0.013070651976603499 -56.20031666265051 -38.725173934524655 -0.03112105263205538 -0.00813435211604558 0.022339668174739626 -0.048837270982113774 0.031642276924720714 -0.013326255004411355 -0.027930253241979872 -0.006446926791598431 -36.73497298102698 0.01973639636454786 -0.046464480989901795 0.042017780109129876 0.003474702308031117 -0.01597987114216345 0.04058673370404286 0.04584482886178266 0.04195094974171831 -19.790898447452726 0.024956353912499275 -0.004978341265462177 0.029762430257727682 0.021752503436195933 -0.01809974629518553 -0.0413872975029797 -0.00613530983567011 -0.019035576664203628 24.084959541644714 -0.009272224317974675 -0.026156975341871343 28.849281333346994 -0.0017193045608017857 0.022614722022294007 28.830160212404273 0.004861918912614406 0.00940546916085903 5.890938273514427 1.5476104176941432 13.801483207815151 -67.25421737928144 15.482550138046955 -5.897324221663857 3.578971305995206 -5.209543025969691 -79.99357327246663 -11.673927857530463 -0.2774120247760441 -0.3290128195671991 -0.4540700990051753 0.09226417719411317 -8.11785028739679 0.011131935619672797 -0.037387420425957364 44.56239706273758 -0.03791377445513768 -0.038813497013389604 44.60178891874905 12.455519514648802 0.021360708602174733 0.0017981205861052922 -0.023670770209684736 0.018629308753947783 -0.0018953681429855428 -0.000557705291052389 0.009917052465792511 0.03674568794117235 11.123194818631344 -0.006894447154266487 0.024108962603503897 0.00896279266134663 -0.01872535469963656 0.005754622727592984 0.012520582070079545 -0.029022830990440337 -0.045259838238399866 4.809541853049647 -0.005129599346295705 -0.045541451505656715 0.023523193828295267 0.02354658172401852 -0.002125042080674747 -0.01539035150182534 0.004643798506313115 -0.021173975686883555 -5.552534463522807 -0.0021848136848256565 0.004974881597530342 -6.695043451292071 0.007683203405993807 0.001692725229939423 -6.6982579066903245 0.020416821298816366 0.045013977106083604 -0.02969508920923354 -0.035699620772145176 0.029381191635538106 8.020805754021108 3.4781877290597123 -19.211873101785738 -0.04090005478839267 10.363624924692283 -0.00891661270026857 -5.61464675349508 -15.619876529992796 3.2309862834053784 0.01352129545946454 -0.009435158807340591 -0.03091170309815674 0.004599140037792599 4.693263529364854 0.033563482490666346 12.434953741685893 -8.202826567415384 6.926325893076939 -0.0279687368328781 46.3914273875534 -0.01410409426585179 -4.336140604225983 -14.770997254165266 -3.799800389797649 0.02919145579993643 0.02523395543474242 -0.039343867709528864 0.03170533480071575 -10.77836127597683 0.031588146931160174 
0.032382629282820756 0.01734799677647862 -0.04889030356266585 0.031706717648621624 -0.04514374035110775 0.02006627423030332 -1.990766679830479 0.7204683506507727 -1.0214523596038332 -0.874517900297972 3.630798033586176 0.3333535758385661 -1.0815815580689327 -2.0098864210209126 -0.9728618533716032 0.04575501824028426 -0.20443004770670178 -0.817041321437982 0.2736101139070764 12.283621687131316 -1.3853253320267611 0.2066829329491514 -0.23425776551047323 -4.521243830068532 0.6883002912201076 -15.400081483211414 -0.4122474896266154 -5.472351695683172 2.0568711907312993 -15.731657606770243 69.73425164461806 -3.893297916706865 4.395939747208465 31.368864624617697 9.34190938285224 89.84183590757665 20.56424757293599 -0.4184666964109107 -3.7009256664618544 4.562995472306672 -0.1160399840968788 -1.5714773614444923 0.007450230768845544 0.010268303327768962 -56.209920138476946 0.04341968472134341 0.01453064586982851 -56.24392756150866 -38.80587357004619 0.04055104091568578 -0.04189168541659145 0.04869979555525332 0.02591723727104826 -0.013580856382885484 0.004436645908855002 0.01521870922397161 -0.007427327582371349 -36.700233212806374 0.03464384121544222 0.002254764951233431 -0.014503588944610147 -0.044111490920360576 0.02933607969244187 -0.02472082868214206 0.02644337445618718 0.048581260192121854 -19.73953567655945 -0.007653961961848737 -0.006594158077024332 -0.012183772858853222 0.008602720988690183 -0.021926927183641153 -0.00283246478815279 0.036785760524071 0.02897154283402952 24.07987599273531 0.0037497113827513117 -0.023698719930760025 28.850314010496902 -0.04084218666113307 -0.044994931533093516 28.884103722256793 0.011491780004293151 -0.013596873188404131 6.440504784485909 1.6421578366270162 13.85131325164824 -66.9255831517183 14.003893885564239 -7.422955812130086 3.2544438107014346 -5.281699889946528 -82.5280973749414 -10.333833968928401 -0.40606076177948186 -0.325690284070294 -0.4396777461546547 0.022523452212724622 -8.10926649306215 -0.01348927525554286 0.011142959227218367 44.528963847352536 0.006596838155899476 0.005389240053481802 44.563144007238016 12.482738734114873 -0.04752151556207859 0.047150275662671916 0.027083129668616285 0.01774272156960978 0.017525715966792258 -0.0007737871845196176 0.014642664782956458 0.007415955362681832 11.09997447636124 -0.013453130670000537 -0.011788742154761354 -0.03778475970312091 -0.04358295213989286 0.0016639389159140493 -0.04933912262399639 0.004043483337445515 -0.041792969723461415 4.751124223455569 0.032526504954223955 -0.024117556285223638 -0.02654601749505781 0.012607585577395358 0.000590397752047752 -0.0020099501455503855 -0.02654918724546567 0.03146282867448181 -5.590920291045832 -0.019978326769082927 -0.014954550821463665 -6.736515086676193 0.007416701664975606 -0.014444190225412648 -6.681086167860341 -0.03744937993450415 -0.04281329258566242 -0.014130761584735528 -0.0013410324424841203 0.03040085959076055 8.039981064354594 3.453961138150141 -19.219226234400104 -0.003373126262265787 10.35312809328955 0.031841432156984914 -5.589358204192516 -15.650988944911575 3.241218818798148 -0.0007262536792994593 -0.006175375363493272 -0.037356957708598565 -0.012437366458436733 4.67574739886078 0.0023800650918648076 12.441372404315329 -8.211925496940228 6.852539886041241 0.013075076290092523 46.39319927020984 0.012546706686947478 -4.295029734463513 -14.760504065799958 -3.8063003597108307 -0.006000505506939689 -0.00805172078495782 -0.04806552507505232 -0.03511658503563473 -10.779218703822316 0.04887882887903347 
-0.021568921297482765 -0.0017352474433898896 -0.0007166092024040198 -0.023682433763936573 0.03565909045207975 0.042684725241468394 -2.12443057715961 0.556731227377775 -0.9800277569620661 -0.8528991023194783 3.5705299601484346 0.4023228546748562 -1.1599333794565112 -2.05821270201151 -1.1238148696539236 -0.023265290408071192 -0.2568971864261115 -0.8494077126175893 0.09909541770021049 12.511883575906749 -1.0375926129435504 0.13685775401097883 -0.033036401515296986 -3.71576365829212 0.5078186296472421 -15.115462752971698 -0.3327621187419808 -5.491691020781105 2.0608677599699456 -15.614223790701976 69.35609146547425 -3.54323711433861 4.601317649992261 30.91433088405687 8.810241354873552 91.15476408129716 20.656846635687792 -0.37110292290359104 -3.9584832183157372 4.578326520199866 -0.15007973607412078 -1.6249628561032783 0.00363988957307008 0.006851900700230791 -56.249114380365036 -0.028683065045511325 -0.008398815348680366 -56.197468742342885 -38.776537355509 -0.008306317043369229 -0.011490489009239655 -0.03897615889542304 -0.016835731494463827 -0.03827011848115903 0.01299907137952788 0.022303176706220486 -0.04792270182390914 -36.74096621450179 0.03224579402500729 0.03316723382099414 -0.016111627725900322 -0.02445329113604755 -0.003940940449195885 0.03376444011446264 0.0264584831648471 0.020833881021079467 -19.75537557925807 0.045675150092398684 -0.021101883568996706 -0.006575941588361287 0.02712319380910492 0.013072789963537026 0.04744304292160193 0.029171716638645533 -0.01715203020767784 24.07416381577764 0.010490098907723181 0.03223739829856409 28.849019089694664 -0.01747107545492125 0.009849425045326637 28.871176210132663 -0.021238194667802888 -0.0298864441494921 6.848377421071176 1.7334142142952822 13.84298792634694 -66.6575297801542 13.177488039793142 -8.860658545447661 3.9606610900070955 -6.109552706673726 -86.6932831416477 -8.961512627592992 -0.6128646979939755 -0.40283733259321064 -0.4720676703713101 0.07352766843832885 -8.104379032491597 -0.04067818914150054 0.022496706854457822 44.57568321430037 -0.04581840827073157 -0.03732363114360754 44.55377450920031 12.425031045236056 0.01999541596873546 0.0024398696603754777 0.019066085518989157 0.04740747126673125 -0.0402704065949109 0.018367732535961932 -0.01723366878155639 -0.03990461485978452 11.093070236327259 0.024321635125854665 -0.003748282316604638 0.0024095478589949205 -0.005238000232468343 -0.029524485061769162 -0.04862992557933964 -0.030338217049912544 0.008656480917954588 4.738579417824345 0.01739880207060116 -0.04111313331550679 0.014797801728680941 0.04404376538581725 0.0032196339580308165 0.029412516261751617 -0.009355036757036223 0.027461500627227173 -5.58063128710817 -0.010334987297286286 -0.018445909151541526 -6.70969616806351 0.03190739964857205 0.009891737157500507 -6.735315351060386 0.04971322988318174 -0.03344862574682597 0.043923009479649305 -0.03810993360490163 0.006241396606515395 8.085461658435213 3.4619166996477597 -19.259094193476916 -0.046873994040189174 10.357872185059348 -0.023544125325732333 -5.642578508034822 -15.649923830373718 3.2075847222488614 0.02201429318565694 -0.0097661198893431 0.027800461554288374 0.0372329873823622 4.724047323741762 -0.035213472793629866 12.43202788827553 -8.217965302217396 6.920953803699577 0.0025927732346301855 46.398416036931906 0.03143920363711902 -4.373602004626784 -14.737174183454421 -3.8713718418831062 -0.04570183324884534 0.003103564410948794 -0.02694906282034181 -0.005051883635547618 -10.728509036215929 -0.018021412054208746 
